<?xml version="1.0" encoding="utf-8"?>
<!-- Generator: Adobe Illustrator 27.1.0, SVG Export Plug-In . SVG Version: 6.00 Build 0)  -->
<svg version="1.1" id="레이어_1" xmlns="http://www.w3.org/2000/svg" xmlns:xlink="http://www.w3.org/1999/xlink" x="0px"
	 y="0px" viewBox="0 0 250 40" style="enable-background:new 0 0 250 40;" xml:space="preserve">
<style type="text/css">
	.st0{fill:#FFFFFF;}
	.st1{fill:#FFB700;}
	.st2{fill:#FA2823;}
	.st3{fill:#00A948;}
	.st4{fill:#1783F8;}
</style>
<g>
	<g>
		<g>
			<path class="st0" d="M230,40H20C8.95,40,0,31.05,0,20v0C0,8.95,8.95,0,20,0h210c11.05,0,20,8.95,20,20v0
				C250,31.05,241.05,40,230,40z"/>
		</g>
	</g>
	<g>
		<polygon points="71.79,17.44 72.98,17.44 72.98,13.44 64.29,13.44 64.29,14.63 71.79,14.63 		"/>
		<polygon points="63.36,21.19 68.04,21.19 68.04,24 69.23,24 69.23,21.19 73.92,21.19 73.92,20 63.36,20 		"/>
		<rect x="78.36" y="19.06" width="10.56" height="1.19"/>
		<polygon points="80.23,23.06 85.86,23.06 85.86,23.75 80.23,23.75 80.23,26.81 87.04,26.81 87.04,25.63 81.42,25.63 81.42,24.94 
			87.04,24.94 87.04,21.88 80.23,21.88 		"/>
		<polygon points="85.86,17.44 87.04,17.44 87.04,13.44 80.23,13.44 80.23,14.63 85.86,14.63 		"/>
		<polygon points="99.23,18.38 102.98,18.38 102.98,17.19 95.48,17.19 95.48,16.5 102.98,16.5 102.98,13.44 94.29,13.44 
			94.29,14.63 101.79,14.63 101.79,15.31 94.29,15.31 94.29,18.38 98.04,18.38 98.04,20.94 93.36,20.94 93.36,22.13 103.92,22.13 
			103.92,20.94 99.23,20.94 		"/>
		<polygon points="120.79,19.06 119.61,19.06 119.61,20.94 115.86,20.94 115.86,22.13 124.54,22.13 124.54,20.94 120.79,20.94 		"/>
		<rect x="126.17" y="13.44" width="1.19" height="9.63"/>
		<path d="M117.73,18.38h4v-0.94h0.94v-1.19h-0.94v-0.69h0.94v-1.19h-5.88v1.19h0.94v0.69h-0.94v1.19h0.94V18.38z M121.48,17.19
			h-3.5V16.5h0.94v-0.94h1.62v0.94h0.94V17.19z"/>
		<rect x="117.73" y="12.5" width="4" height="1.19"/>
		<polygon points="138.61,19.06 130.86,19.06 130.86,20.25 133.67,20.25 133.67,22.13 134.86,22.13 134.86,20.25 138.61,20.25 		"/>
		<polygon points="141.17,20 139.29,20 139.29,21.19 141.17,21.19 141.17,22.13 142.36,22.13 142.36,13.44 141.17,13.44 		"/>
		<path d="M131.79,17.44h4V16.5h0.94v-2.12h-0.94v-0.94h-4v0.94h-0.94v2.12h0.94V17.44z M132.04,14.63h3.5v1.62h-3.5V14.63z"/>
		<polygon points="136.73,21.88 135.54,21.88 135.54,26.81 142.36,26.81 142.36,25.63 136.73,25.63 		"/>
		<polygon points="144.92,14.63 149.61,14.63 149.61,20.25 150.79,20.25 150.79,13.44 144.92,13.44 		"/>
		<polygon points="157.36,13.44 156.17,13.44 156.17,23.06 157.36,23.06 157.36,17.44 159.23,17.44 159.23,16.25 157.36,16.25 		"/>
		<rect x="171.17" y="13.44" width="1.19" height="7.75"/>
		<path d="M165.79,18.38h0.94v-3.06h-0.94v-0.94h-0.94v-0.94h-2.12v0.94h-0.94v0.94h-0.94v3.06h0.94v0.94h0.94v0.94h2.12v-0.94h0.94
			V18.38z M165.54,18.13h-0.94v0.94h-1.62v-0.94h-0.94v-2.56h0.94v-0.94h1.62v0.94h0.94V18.13z"/>
		<path d="M171.17,23.75h-4.44v-1.88h-1.19v4.94h6.81v-4.94h-1.19V23.75z M166.73,25.63v-0.69h4.44v0.69H166.73z"/>
		<rect x="177.73" y="12.5" width="3.06" height="1.19"/>
		<polygon points="187.36,13.44 186.17,13.44 186.17,23.06 187.36,23.06 187.36,17.44 189.23,17.44 189.23,16.25 187.36,16.25 		"/>
		<path d="M180.79,16.25h-3.06v0.94h-0.94v2.12h0.94v0.94h3.06v-0.94h0.94v-2.12h-0.94V16.25z M180.54,19.06h-2.56v-1.62h2.56V19.06
			z"/>
		<rect x="175.86" y="14.38" width="6.81" height="1.19"/>
		<rect x="201.17" y="13.44" width="1.19" height="9.63"/>
		<polygon points="189.92,14.63 194.61,14.63 194.61,20.25 195.79,20.25 195.79,13.44 189.92,13.44 		"/>
	</g>
	<g>
		<g>
			<g>
				<g>
					<path class="st1" d="M28.18,15.82c0,0-2.99,4.77,0.42,9.54L31.58,23c0,0-1.55-1.79-0.32-5.34L28.18,15.82z"/>
				</g>
			</g>
		</g>
		<g>
			<g>
				<g>
					<path class="st2" d="M39.7,16.15c0,0-5.69-3.57-8.66,2.34l-3.07-2.31c0,0,2.46-4.59,7.22-4.89s7.05,2.25,7.05,2.25L39.7,16.15z
						"/>
				</g>
			</g>
		</g>
		<g>
			<g>
				<g>
					<path class="st3" d="M31.16,22.24c0,0,1.3,3.05,4.34,3.42c3.03,0.37,5.34-2.06,5.34-2.06l2.12,2.76c0,0-2.54,3.16-6.9,2.87
						s-7.07-2.69-8.07-4.9L31.16,22.24z"/>
				</g>
			</g>
		</g>
		<g>
			<g>
				<g>
					<path class="st4" d="M36.06,18.56v3.55h5.03c0,0-0.19,1.61-1.72,2.62l2.93,2.29c0,0,3.43-2.15,2.49-8.48L36.06,18.56z"/>
				</g>
			</g>
		</g>
	</g>
</g>
</svg>
