<?xml version="1.0" encoding="utf-8"?>
<!-- Generator: Adobe Illustrator 27.1.0, SVG Export Plug-In . SVG Version: 6.00 Build 0)  -->
<svg version="1.1" id="레이어_1" xmlns="http://www.w3.org/2000/svg" xmlns:xlink="http://www.w3.org/1999/xlink" x="0px"
	 y="0px" viewBox="0 0 250 40" style="enable-background:new 0 0 250 40;" xml:space="preserve">
<style type="text/css">
	.st0{fill:#FFFFFF;}
	.st1{fill:#FFB700;}
	.st2{fill:#FA2823;}
	.st3{fill:#00A948;}
	.st4{fill:#1783F8;}
</style>
<g>
	<g>
		<path class="st0" d="M230,40H20C8.95,40,0,31.05,0,20v0C0,8.95,8.95,0,20,0h210c11.05,0,20,8.95,20,20v0
			C250,31.05,241.05,40,230,40z"/>
	</g>
	<g>
		<polygon points="64.8,22.31 69.49,22.31 69.49,25.13 70.68,25.13 70.68,22.31 75.37,22.31 75.37,21.13 64.8,21.13 		"/>
		<polygon points="73.24,18.56 74.43,18.56 74.43,14.56 65.74,14.56 65.74,15.75 73.24,15.75 		"/>
		<rect x="79.8" y="20.19" width="10.56" height="1.19"/>
		<polygon points="81.68,24.19 87.3,24.19 87.3,24.88 81.68,24.88 81.68,27.94 88.49,27.94 88.49,26.75 82.87,26.75 82.87,26.06 
			88.49,26.06 88.49,23 81.68,23 		"/>
		<polygon points="87.3,18.56 88.49,18.56 88.49,14.56 81.68,14.56 81.68,15.75 87.3,15.75 		"/>
		<polygon points="100.68,19.5 104.43,19.5 104.43,18.31 96.93,18.31 96.93,17.63 104.43,17.63 104.43,14.56 95.74,14.56 
			95.74,15.75 103.24,15.75 103.24,16.44 95.74,16.44 95.74,19.5 99.49,19.5 99.49,22.06 94.8,22.06 94.8,23.25 105.37,23.25 
			105.37,22.06 100.68,22.06 		"/>
		<polygon points="123.18,19.5 126.93,19.5 126.93,18.31 119.43,18.31 119.43,17.63 126.93,17.63 126.93,14.56 118.24,14.56 
			118.24,15.75 125.74,15.75 125.74,16.44 118.24,16.44 118.24,19.5 121.99,19.5 121.99,22.06 117.3,22.06 117.3,23.25 
			127.87,23.25 127.87,22.06 123.18,22.06 		"/>
		<polygon points="140.74,18.56 141.93,18.56 141.93,14.56 133.24,14.56 133.24,15.75 140.74,15.75 		"/>
		<rect x="132.3" y="22.06" width="10.56" height="1.19"/>
		<rect x="157.62" y="14.56" width="1.19" height="7.75"/>
		<polygon points="153.18,23 151.99,23 151.99,27.94 158.8,27.94 158.8,26.75 153.18,26.75 		"/>
		<path d="M152.24,20.44V19.5h0.94v-3.06h-0.94V15.5h-0.94v-0.94h-2.12v0.94h-0.94v0.94h-0.94v3.06h0.94v0.94h0.94v0.94h2.12v-0.94
			H152.24z M148.49,19.25v-2.56h0.94v-0.94h1.62v0.94h0.94v2.56h-0.94v0.94h-1.62v-0.94H148.49z"/>
		<rect x="164.18" y="13.63" width="3.06" height="1.19"/>
		<rect x="162.3" y="15.5" width="6.81" height="1.19"/>
		<polygon points="173.8,14.56 172.62,14.56 172.62,24.19 173.8,24.19 173.8,18.56 175.68,18.56 175.68,17.38 173.8,17.38 		"/>
		<path d="M167.24,17.38h-3.06v0.94h-0.94v2.12h0.94v0.94h3.06v-0.94h0.94v-2.12h-0.94V17.38z M166.99,18.56v1.62h-2.56v-1.62
			H166.99z"/>
		<polygon points="176.37,15.75 181.05,15.75 181.05,21.38 182.24,21.38 182.24,14.56 176.37,14.56 		"/>
		<rect x="187.62" y="14.56" width="1.19" height="9.63"/>
	</g>
	<g>
		<g>
			<g>
				<path class="st1" d="M28.17,15.82c0,0-2.99,4.77,0.42,9.54L31.57,23c0,0-1.55-1.79-0.32-5.34L28.17,15.82z"/>
			</g>
		</g>
		<g>
			<g>
				<path class="st2" d="M39.69,16.15c0,0-5.69-3.57-8.66,2.34l-3.07-2.31c0,0,2.46-4.59,7.22-4.89s7.05,2.25,7.05,2.25L39.69,16.15
					z"/>
			</g>
		</g>
		<g>
			<g>
				<path class="st3" d="M31.15,22.24c0,0,1.3,3.05,4.34,3.42c3.03,0.37,5.34-2.06,5.34-2.06l2.12,2.76c0,0-2.54,3.16-6.9,2.87
					s-7.07-2.69-8.07-4.9L31.15,22.24z"/>
			</g>
		</g>
		<g>
			<g>
				<path class="st4" d="M36.05,18.56v3.55h5.03c0,0-0.19,1.61-1.72,2.62l2.93,2.29c0,0,3.43-2.15,2.49-8.48L36.05,18.56z"/>
			</g>
		</g>
	</g>
</g>
</svg>
