<?xml version="1.0" encoding="utf-8"?>
<!-- Generator: Adobe Illustrator 27.1.0, SVG Export Plug-In . SVG Version: 6.00 Build 0)  -->
<svg version="1.1" id="레이어_1" xmlns="http://www.w3.org/2000/svg" xmlns:xlink="http://www.w3.org/1999/xlink" x="0px"
	 y="0px" viewBox="0 0 250 40" style="enable-background:new 0 0 250 40;" xml:space="preserve">
<style type="text/css">
	.st0{fill:#FFE200;}
	.st1{enable-background:new    ;}
	.st2{fill:#401C1D;}
</style>
<g>
	<g>
		<g>
			<path class="st0" d="M230,40H20C8.95,40,0,31.05,0,20l0,0C0,8.95,8.95,0,20,0h210c11.05,0,20,8.95,20,20l0,0
				C250,31.05,241.05,40,230,40z"/>
		</g>
	</g>
	<g class="st1">
		<g>
			<g>
				<path class="st2" d="M35.6,11c-5.25,0-9.5,3.41-9.5,7.61c0,2.69,1.75,5.06,4.39,6.41L29.56,29l4.42-2.9
					c0.53,0.07,1.07,0.12,1.62,0.12c5.25,0,9.5-3.41,9.5-7.61S40.84,11,35.6,11z"/>
			</g>
		</g>
	</g>
	<g class="st1">
		<g>
			<path d="M62.54,17.02v-0.94h4.69v-0.94h-4.69v-0.94h5.62v6.56h-0.94v-3.75H62.54z M74.73,17.96v5.62h-0.94v-9.38h0.94v2.81h1.88
				v0.94H74.73z"/>
			<path d="M74.86,23.71h-1.19v-9.62h1.19v2.81h1.88v1.19h-1.88V23.71z M73.92,23.46h0.69v-5.62h1.88v-0.69h-1.88v-2.81h-0.69V23.46
				z M68.29,20.9h-1.19v-3.75h-4.69v-1.19h4.69v-0.69h-4.69v-1.19h5.88V20.9z M67.36,20.65h0.69v-6.31h-5.38v0.69h4.69v1.19h-4.69
				v0.69h4.69V20.65z"/>
		</g>
		<g>
			<path d="M77.54,17.02v-0.94h4.69v-0.94h-4.69v-0.94h5.62v6.56h-0.94v-3.75H77.54z M89.73,17.96v5.62h-0.94v-9.38h0.94v2.81h1.88
				v0.94H89.73z"/>
			<path d="M89.86,23.71h-1.19v-9.62h1.19v2.81h1.88v1.19h-1.88V23.71z M88.92,23.46h0.69v-5.62h1.88v-0.69h-1.88v-2.81h-0.69V23.46
				z M83.29,20.9h-1.19v-3.75h-4.69v-1.19h4.69v-0.69h-4.69v-1.19h5.88V20.9z M82.36,20.65h0.69v-6.31h-5.38v0.69h4.69v1.19h-4.69
				v0.69h4.69V20.65z"/>
		</g>
		<g>
			<path d="M93.48,22.65v-0.94h4.69V18.9h-1.88v-0.94h4.69v0.94h-1.88v2.81h4.69v0.94H93.48z M95.36,17.96v-0.94v-0.94v-0.94h0.94
				v0.94v1.88H95.36z M96.29,14.21h4.69v0.94h-4.69V14.21z M100.98,15.15h0.94v2.81h-0.94V15.15z"/>
			<path d="M103.92,22.77H93.36v-1.19h4.69v-2.56h-1.88v-0.94h-0.94v-3.06h0.94v-0.94h4.94v0.94h0.94v3.06h-0.94v0.94h-1.88v2.56
				h4.69V22.77z M93.61,22.52h10.06v-0.69h-4.69v-3.06h1.88v-0.69h-4.44v0.69h1.88v3.06h-4.69V22.52z M101.11,17.83h0.69v-2.56
				h-0.69V17.83z M96.42,17.83h4.44v-2.56h-4.44V17.83z M95.48,17.83h0.69v-2.56h-0.69V17.83z M96.42,15.02h4.44v-0.69h-4.44V15.02z
				"/>
		</g>
		<g>
			<path d="M108.48,22.65v-0.94h4.69V18.9h-3.75v-2.81h7.5v-0.94h-7.5v-0.94h8.44v2.81h-7.5v0.94h7.5v0.94h-3.75v2.81h4.69v0.94
				H108.48z"/>
			<path d="M118.92,22.77h-10.56v-1.19h4.69v-2.56h-3.75v-3.06h7.5v-0.69h-7.5v-1.19h8.69v3.06h-7.5v0.69h7.5v1.19h-3.75v2.56h4.69
				V22.77z M108.61,22.52h10.06v-0.69h-4.69v-3.06h3.75v-0.69h-7.5V16.9h7.5v-2.56h-8.19v0.69h7.5v1.19h-7.5v2.56h3.75v3.06h-4.69
				V22.52z"/>
		</g>
		<g>
			<path d="M130.98,22.65v-0.94h3.75v-1.88h0.94v1.88h3.75v0.94H130.98z M136.61,16.08v0.94h-0.94v-0.94h-1.88v0.94h-0.94v0.94
				h-0.94v-0.94h0.94v-0.94h-0.94v-0.94h5.62v0.94H136.61z M132.86,14.21v-0.94h3.75v0.94H132.86z M136.61,17.96v0.94h-3.75v-0.94
				H136.61v-0.94h0.94v0.94H136.61z M142.23,14.21v9.38h-0.94v-9.38H142.23z"/>
			<path d="M142.36,23.71h-1.19v-9.62h1.19V23.71z M141.42,23.46h0.69v-9.12h-0.69V23.46z M139.54,22.77h-8.69v-1.19h3.75v-1.88
				h1.19v1.88h3.75V22.77z M131.11,22.52h8.19v-0.69h-3.75v-1.88h-0.69v1.88h-3.75V22.52z M136.73,19.02h-4v-0.94h-0.94V16.9h0.94
				v-0.69h-0.94v-1.19h5.88v1.19h-0.94v0.69h0.94v1.19h-0.94V19.02z M132.98,18.77h3.5v-0.69h-3.5V18.77z M136.73,17.83h0.69v-0.69
				h-0.69V17.83z M132.98,17.83h3.5v-0.69h-0.94v-0.94h-1.62v0.94h-0.94V17.83z M132.04,17.83h0.69v-0.69h-0.69V17.83z M135.79,16.9
				h0.69v-0.94h0.94v-0.69h-5.38v0.69h0.94v0.94h0.69v-0.94h2.12V16.9z M136.73,14.33h-4v-1.19h4V14.33z M132.98,14.08h3.5V13.4
				h-3.5V14.08z"/>
		</g>
		<g>
			<path d="M145.98,17.02v-0.94v-0.94h0.94v1.88H145.98z M149.73,20.77v1.88h-0.94v-1.88h-2.81v-0.94h7.5v0.94H149.73z
				 M146.92,14.21h3.75v0.94h-3.75V14.21z M150.67,17.02v0.94h-3.75v-0.94H150.67z M150.67,15.15h0.94v1.88h-0.94V15.15z
				 M150.67,27.33v-4.69h0.94v3.75h5.62v0.94H150.67z M154.42,21.71v-0.94h1.88v-6.56h0.94v8.44h-0.94v-0.94H154.42z"/>
			<path d="M157.36,27.46h-6.81v-4.94h1.19v3.75h5.62V27.46z M150.79,27.21h6.31v-0.69h-5.62v-3.75h-0.69V27.21z M157.36,22.77
				h-1.19v-0.94h-1.88v-1.19h1.88v-6.56h1.19V22.77z M156.42,22.52h0.69v-8.19h-0.69v6.56h-1.88v0.69h1.88V22.52z M149.86,22.77
				h-1.19V20.9h-2.81v-1.19h7.75v1.19h-3.75V22.77z M148.92,22.52h0.69v-1.88h3.75v-0.69h-7.25v0.69h2.81V22.52z M150.79,18.08h-4
				v-0.94h-0.94v-2.12h0.94v-0.94h4v0.94h0.94v2.12h-0.94V18.08z M147.04,17.83h3.5v-0.69h-3.5V17.83z M150.79,16.9h0.69v-1.62
				h-0.69V16.9z M147.04,16.9h3.5v-1.62h-3.5V16.9z M146.11,16.9h0.69v-1.62h-0.69V16.9z M147.04,15.02h3.5v-0.69h-3.5V15.02z"/>
		</g>
		<g>
			<path d="M160.04,15.15v-0.94h5.62v6.56h-0.94v-5.62H160.04z M172.23,17.96v5.62h-0.94v-9.38h0.94v2.81h1.88v0.94H172.23z"/>
			<path d="M172.36,23.71h-1.19v-9.62h1.19v2.81h1.88v1.19h-1.88V23.71z M171.42,23.46h0.69v-5.62h1.88v-0.69h-1.88v-2.81h-0.69
				V23.46z M165.79,20.9h-1.19v-5.62h-4.69v-1.19h5.88V20.9z M164.86,20.65h0.69v-6.31h-5.38v0.69h4.69V20.65z"/>
		</g>
		<g>
			<path d="M175.98,18.9v-0.94v-0.94v-0.94h0.94v0.94v1.88H175.98z M176.92,15.15h0.94v0.94h-0.94V15.15z M176.92,19.83V18.9h0.94
				v0.94H176.92z M177.86,14.21h1.88v0.94h-1.88V14.21z M179.73,19.83v0.94h-1.88v-0.94H179.73z M179.73,16.08v-0.94h0.94v0.94
				H179.73z M179.73,18.9h0.94v0.94h-0.94V18.9z M180.67,16.08h0.94v2.81h-0.94V16.08z M181.61,22.65v1.88h4.69v-1.88h0.94v4.69
				h-6.56v-4.69H181.61z M186.29,26.4v-0.94h-4.69v0.94H186.29z M187.23,14.21v7.5h-0.94v-7.5H187.23z"/>
			<path d="M187.36,27.46h-6.81v-4.94h1.19v1.88h4.44v-1.88h1.19V27.46z M180.79,27.21h6.31v-4.44h-0.69v1.88h-4.94v-1.88h-0.69
				V27.21z M186.42,26.52h-4.94v-1.19h4.94V26.52z M181.73,26.27h4.44v-0.69h-4.44V26.27z M187.36,21.83h-1.19v-7.75h1.19V21.83z
				 M186.42,21.58h0.69v-7.25h-0.69V21.58z M179.86,20.9h-2.12v-0.94h-0.94v-0.94h-0.94v-3.06h0.94v-0.94h0.94v-0.94h2.12v0.94h0.94
				v0.94h0.94v3.06h-0.94v0.94h-0.94V20.9z M177.98,20.65h1.62v-0.69h-1.62V20.65z M179.86,19.71h0.69v-0.69h-0.69V19.71z
				 M177.98,19.71h1.62v-0.94h0.94v-2.56h-0.94v-0.94h-1.62v0.94h-0.94v2.56h0.94V19.71z M177.04,19.71h0.69v-0.69h-0.69V19.71z
				 M180.79,18.77h0.69v-2.56h-0.69V18.77z M176.11,18.77h0.69v-2.56h-0.69V18.77z M179.86,15.96h0.69v-0.69h-0.69V15.96z
				 M177.04,15.96h0.69v-0.69h-0.69V15.96z M177.98,15.02h1.62v-0.69h-1.62V15.02z"/>
		</g>
		<g>
			<path d="M190.98,16.08v-0.94h6.56v0.94H190.98z M191.92,19.83V18.9v-0.94h0.94v1.88H191.92z M192.86,14.21v-0.94h2.81v0.94
				H192.86z M192.86,17.02h2.81v0.94h-2.81V17.02z M195.67,19.83v0.94h-2.81v-0.94H195.67z M195.67,17.96h0.94v1.88h-0.94V17.96z
				 M202.23,17.96v5.62h-0.94v-9.38h0.94v2.81h1.88v0.94H202.23z"/>
			<path d="M202.36,23.71h-1.19v-9.62h1.19v2.81h1.88v1.19h-1.88V23.71z M201.42,23.46h0.69v-5.62h1.88v-0.69h-1.88v-2.81h-0.69
				V23.46z M195.79,20.9h-3.06v-0.94h-0.94v-2.12h0.94V16.9h3.06v0.94h0.94v2.12h-0.94V20.9z M192.98,20.65h2.56v-0.69h-2.56V20.65z
				 M195.79,19.71h0.69v-1.62h-0.69V19.71z M192.98,19.71h2.56v-1.62h-2.56V19.71z M192.04,19.71h0.69v-1.62h-0.69V19.71z
				 M192.98,17.83h2.56v-0.69h-2.56V17.83z M197.67,16.21h-6.81v-1.19h6.81V16.21z M191.11,15.96h6.31v-0.69h-6.31V15.96z
				 M195.79,14.33h-3.06v-1.19h3.06V14.33z M192.98,14.08h2.56V13.4h-2.56V14.08z"/>
		</g>
		<g>
			<path d="M205.04,15.15v-0.94h5.62v6.56h-0.94v-5.62H205.04z M217.23,14.21v9.38h-0.94v-9.38H217.23z"/>
			<path d="M217.36,23.71h-1.19v-9.62h1.19V23.71z M216.42,23.46h0.69v-9.12h-0.69V23.46z M210.79,20.9h-1.19v-5.62h-4.69v-1.19
				h5.88V20.9z M209.86,20.65h0.69v-6.31h-5.38v0.69h4.69V20.65z"/>
		</g>
	</g>
	<g>
		<g>
			<rect x="58.44" y="10.39" class="st0" width="33.71" height="16.93"/>
		</g>
	</g>
	<g>
		<g>
			<g>
				<path d="M61.66,16.57v-0.94h4.69V14.7h-4.69v-0.94h5.62v6.56h-0.94v-3.75H61.66z M71.84,17.51v5.62h-0.94v-9.38h0.94v2.81h1.88
					v0.94H71.84z"/>
			</g>
			<g>
				<path d="M71.97,23.26h-1.19v-9.62h1.19v2.81h1.88v1.19h-1.88V23.26z M71.03,23.01h0.69v-5.62h1.88V16.7h-1.88v-2.81h-0.69V23.01
					z M67.41,20.45h-1.19V16.7h-4.69v-1.19h4.69v-0.69h-4.69v-1.19h5.88V20.45z M66.47,20.2h0.69v-6.31h-5.38v0.69h4.69v1.19h-4.69
					v0.69h4.69V20.2z"/>
			</g>
		</g>
		<g>
			<g>
				<path d="M77.66,16.57v-0.94h4.69V14.7h-4.69v-0.94h5.62v6.56h-0.94v-3.75H77.66z M87.84,17.51v5.62h-0.94v-9.38h0.94v2.81h1.88
					v0.94H87.84z"/>
			</g>
			<g>
				<path d="M87.97,23.26h-1.19v-9.62h1.19v2.81h1.88v1.19h-1.88V23.26z M87.03,23.01h0.69v-5.62h1.88V16.7h-1.88v-2.81h-0.69V23.01
					z M83.41,20.45h-1.19V16.7h-4.69v-1.19h4.69v-0.69h-4.69v-1.19h5.88V20.45z M82.47,20.2h0.69v-6.31h-5.38v0.69h4.69v1.19h-4.69
					v0.69h4.69V20.2z"/>
			</g>
		</g>
		<g>
			<g>
				<g>
					<rect x="61.41" y="15.21" class="st0" width="4.8" height="1.97"/>
				</g>
			</g>
			<g>
				<g>
					<rect x="61.53" y="16.58" width="4.81" height="1.19"/>
				</g>
			</g>
		</g>
		<g>
			<g>
				<g>
					<rect x="77.42" y="15.21" class="st0" width="4.8" height="1.97"/>
				</g>
			</g>
			<g>
				<g>
					<rect x="77.54" y="16.58" width="4.81" height="1.19"/>
				</g>
			</g>
		</g>
	</g>
</g>
</svg>
