<?xml version="1.0" encoding="utf-8"?>
<!-- Generator: Adobe Illustrator 27.1.0, SVG Export Plug-In . SVG Version: 6.00 Build 0)  -->
<svg version="1.1" id="레이어_1" xmlns="http://www.w3.org/2000/svg" xmlns:xlink="http://www.w3.org/1999/xlink" x="0px"
	 y="0px" viewBox="0 0 250 40" style="enable-background:new 0 0 250 40;" xml:space="preserve">
<style type="text/css">
	.st0{fill:#00CB00;}
	.st1{fill:#FFFFFF;}
</style>
<g>
	<g>
		<path class="st0" d="M230,40H20C8.95,40,0,31.05,0,20v0C0,8.95,8.95,0,20,0h210c11.05,0,20,8.95,20,20v0
			C250,31.05,241.05,40,230,40z"/>
	</g>
	<g>
		<polygon class="st1" points="71.79,16.89 68.98,16.89 68.98,18.08 71.79,18.08 71.79,23.7 72.98,23.7 72.98,14.08 71.79,14.08 		
			"/>
		<rect x="74.61" y="14.08" class="st1" width="1.19" height="9.62"/>
		<polygon class="st1" points="64.54,14.08 63.36,14.08 63.36,20.89 69.23,20.89 69.23,19.7 64.54,19.7 		"/>
		<rect x="88.67" y="14.08" class="st1" width="1.19" height="9.62"/>
		<path class="st1" d="M83.29,15.02h-0.94v-0.94h-2.12v0.94h-0.94v0.94h-0.94v3.06h0.94v0.94h0.94v0.94h2.12v-0.94h0.94v-0.94h0.94
			v-3.06h-0.94V15.02z M83.04,18.77h-0.94v0.94h-1.62v-0.94h-0.94V16.2h0.94v-0.94h1.62v0.94h0.94V18.77z"/>
		<path class="st1" d="M98.04,15.95h-3.5v-1.88h-1.19v6.81h5.88v-6.81h-1.19V15.95z M94.54,19.7v-2.56h3.5v2.56H94.54z"/>
		<polygon class="st1" points="103.67,16.89 100.86,16.89 100.86,18.08 103.67,18.08 103.67,23.7 104.86,23.7 104.86,14.08 
			103.67,14.08 		"/>
		<polygon class="st1" points="114.23,19.02 117.98,19.02 117.98,17.83 110.48,17.83 110.48,17.14 117.98,17.14 117.98,14.08 
			109.29,14.08 109.29,15.27 116.79,15.27 116.79,15.95 109.29,15.95 109.29,19.02 113.04,19.02 113.04,21.58 108.36,21.58 
			108.36,22.77 118.92,22.77 118.92,21.58 114.23,21.58 		"/>
		<path class="st1" d="M132.73,19.02h4v-0.94h0.94v-1.19h-0.94V16.2h0.94v-1.19h-5.88v1.19h0.94v0.69h-0.94v1.19h0.94V19.02z
			 M136.48,17.83h-3.5v-0.69h0.94V16.2h1.62v0.94h0.94V17.83z"/>
		<polygon class="st1" points="135.79,19.7 134.61,19.7 134.61,21.58 130.86,21.58 130.86,22.77 139.54,22.77 139.54,21.58 
			135.79,21.58 		"/>
		<rect x="132.73" y="13.14" class="st1" width="4" height="1.19"/>
		<rect x="141.17" y="14.08" class="st1" width="1.19" height="9.62"/>
		<polygon class="st1" points="156.17,20.64 154.29,20.64 154.29,21.83 156.17,21.83 156.17,22.77 157.36,22.77 157.36,14.08 
			156.17,14.08 		"/>
		<polygon class="st1" points="153.61,19.7 145.86,19.7 145.86,20.89 148.67,20.89 148.67,22.77 149.86,22.77 149.86,20.89 
			153.61,20.89 		"/>
		<path class="st1" d="M146.79,18.08h4v-0.94h0.94v-2.12h-0.94v-0.94h-4v0.94h-0.94v2.12h0.94V18.08z M147.04,15.27h3.5v1.62h-3.5
			V15.27z"/>
		<polygon class="st1" points="151.73,22.52 150.54,22.52 150.54,27.45 157.36,27.45 157.36,26.27 151.73,26.27 		"/>
		<polygon class="st1" points="159.92,15.27 164.61,15.27 164.61,20.89 165.79,20.89 165.79,14.08 159.92,14.08 		"/>
		<polygon class="st1" points="172.36,14.08 171.17,14.08 171.17,23.7 172.36,23.7 172.36,18.08 174.23,18.08 174.23,16.89 
			172.36,16.89 		"/>
		<rect x="186.17" y="14.08" class="st1" width="1.19" height="7.75"/>
		<path class="st1" d="M186.17,24.39h-4.44v-1.88h-1.19v4.94h6.81v-4.94h-1.19V24.39z M181.73,26.27v-0.69h4.44v0.69H181.73z"/>
		<path class="st1" d="M180.79,19.02h0.94v-3.06h-0.94v-0.94h-0.94v-0.94h-2.12v0.94h-0.94v0.94h-0.94v3.06h0.94v0.94h0.94v0.94
			h2.12v-0.94h0.94V19.02z M180.54,18.77h-0.94v0.94h-1.62v-0.94h-0.94V16.2h0.94v-0.94h1.62v0.94h0.94V18.77z"/>
		<path class="st1" d="M195.79,16.89h-3.06v0.94h-0.94v2.12h0.94v0.94h3.06v-0.94h0.94v-2.12h-0.94V16.89z M195.54,19.7h-2.56v-1.62
			h2.56V19.7z"/>
		<rect x="190.86" y="15.02" class="st1" width="6.81" height="1.19"/>
		<rect x="192.73" y="13.14" class="st1" width="3.06" height="1.19"/>
		<polygon class="st1" points="202.36,14.08 201.17,14.08 201.17,23.7 202.36,23.7 202.36,18.08 204.23,18.08 204.23,16.89 
			202.36,16.89 		"/>
		<polygon class="st1" points="204.92,15.27 209.61,15.27 209.61,20.89 210.79,20.89 210.79,14.08 204.92,14.08 		"/>
		<rect x="216.17" y="14.08" class="st1" width="1.19" height="9.62"/>
	</g>
	<g>
		<g>
			<polygon class="st1" points="27.97,28.77 33.41,28.77 33.41,20.69 38.48,28.78 43.97,28.78 43.97,12.78 38.59,12.78 38.59,20.78 
				33.47,12.78 27.97,12.78 			"/>
		</g>
	</g>
</g>
</svg>
