<?xml version="1.0" encoding="utf-8"?>
<!-- Generator: Adobe Illustrator 27.1.0, SVG Export Plug-In . SVG Version: 6.00 Build 0)  -->
<svg version="1.1" id="레이어_1" xmlns="http://www.w3.org/2000/svg" xmlns:xlink="http://www.w3.org/1999/xlink" x="0px"
	 y="0px" viewBox="0 0 250 40" style="enable-background:new 0 0 250 40;" xml:space="preserve">
<style type="text/css">
	.st0{fill:#00CB00;}
	.st1{fill:#FFFFFF;}
</style>
<g>
	<g>
		<path class="st0" d="M230,40H20C8.95,40,0,31.05,0,20v0C0,8.95,8.95,0,20,0h210c11.05,0,20,8.95,20,20v0
			C250,31.05,241.05,40,230,40z"/>
	</g>
	<g>
		<polygon class="st1" points="73.24,17.37 70.43,17.37 70.43,18.56 73.24,18.56 73.24,24.19 74.43,24.19 74.43,14.56 73.24,14.56 
					"/>
		<polygon class="st1" points="65.99,14.56 64.8,14.56 64.8,21.37 70.68,21.37 70.68,20.19 65.99,20.19 		"/>
		<rect x="76.05" y="14.56" class="st1" width="1.19" height="9.62"/>
		<rect x="90.12" y="14.56" class="st1" width="1.19" height="9.62"/>
		<path class="st1" d="M84.74,15.5H83.8v-0.94h-2.12v0.94h-0.94v0.94H79.8v3.06h0.94v0.94h0.94v0.94h2.12v-0.94h0.94V19.5h0.94
			v-3.06h-0.94V15.5z M83.55,20.19h-1.62v-0.94h-0.94v-2.56h0.94v-0.94h1.62v0.94h0.94v2.56h-0.94V20.19z"/>
		<path class="st1" d="M99.49,16.44h-3.5v-1.88H94.8v6.81h5.88v-6.81h-1.19V16.44z M95.99,20.19v-2.56h3.5v2.56H95.99z"/>
		<polygon class="st1" points="105.12,17.37 102.3,17.37 102.3,18.56 105.12,18.56 105.12,24.19 106.3,24.19 106.3,14.56 
			105.12,14.56 		"/>
		<polygon class="st1" points="115.68,19.5 119.43,19.5 119.43,18.31 111.93,18.31 111.93,17.62 119.43,17.62 119.43,14.56 
			110.74,14.56 110.74,15.75 118.24,15.75 118.24,16.44 110.74,16.44 110.74,19.5 114.49,19.5 114.49,22.06 109.8,22.06 
			109.8,23.25 120.37,23.25 120.37,22.06 115.68,22.06 		"/>
		<polygon class="st1" points="138.18,19.5 141.93,19.5 141.93,18.31 134.43,18.31 134.43,17.62 141.93,17.62 141.93,14.56 
			133.24,14.56 133.24,15.75 140.74,15.75 140.74,16.44 133.24,16.44 133.24,19.5 136.99,19.5 136.99,22.06 132.3,22.06 
			132.3,23.25 142.87,23.25 142.87,22.06 138.18,22.06 		"/>
		<polygon class="st1" points="155.74,18.56 156.93,18.56 156.93,14.56 148.24,14.56 148.24,15.75 155.74,15.75 		"/>
		<rect x="147.3" y="22.06" class="st1" width="10.56" height="1.19"/>
		<path class="st1" d="M167.24,20.44V19.5h0.94v-3.06h-0.94V15.5h-0.94v-0.94h-2.12v0.94h-0.94v0.94h-0.94v3.06h0.94v0.94h0.94v0.94
			h2.12v-0.94H167.24z M163.49,19.25v-2.56h0.94v-0.94h1.62v0.94h0.94v2.56h-0.94v0.94h-1.62v-0.94H163.49z"/>
		<polygon class="st1" points="168.18,23 166.99,23 166.99,27.94 173.8,27.94 173.8,26.75 168.18,26.75 		"/>
		<rect x="172.62" y="14.56" class="st1" width="1.19" height="7.75"/>
		<polygon class="st1" points="188.8,14.56 187.62,14.56 187.62,24.19 188.8,24.19 188.8,18.56 190.68,18.56 190.68,17.37 
			188.8,17.37 		"/>
		<rect x="179.18" y="13.62" class="st1" width="3.06" height="1.19"/>
		<rect x="177.3" y="15.5" class="st1" width="6.81" height="1.19"/>
		<path class="st1" d="M182.24,17.37h-3.06v0.94h-0.94v2.12h0.94v0.94h3.06v-0.94h0.94v-2.12h-0.94V17.37z M181.99,18.56v1.62h-2.56
			v-1.62H181.99z"/>
		<rect x="202.62" y="14.56" class="st1" width="1.19" height="9.62"/>
		<polygon class="st1" points="191.37,15.75 196.05,15.75 196.05,21.37 197.24,21.37 197.24,14.56 191.37,14.56 		"/>
	</g>
	<g>
		<g>
			<polygon class="st1" points="27.97,28.77 33.41,28.77 33.41,20.69 38.48,28.78 43.97,28.78 43.97,12.78 38.58,12.78 38.58,20.78 
				33.46,12.78 27.97,12.78 			"/>
		</g>
	</g>
</g>
</svg>
